<svg xmlns="http://www.w3.org/2000/svg" viewBox="0 0 120 90"><defs><linearGradient id="top" x1="0" y1="0" x2="1" y2="1"><stop offset="0" stop-color="#fff2a0"/><stop offset=".45" stop-color="#ffd23f"/><stop offset="1" stop-color="#f0a400"/></linearGradient>
<linearGradient id="side" x1="0" y1="0" x2="1" y2="0"><stop offset="0" stop-color="#d98a00"/><stop offset=".5" stop-color="#ffc21f"/><stop offset="1" stop-color="#b86e00"/></linearGradient>
<radialGradient id="glow"><stop offset="0" stop-color="#ffd84d" stop-opacity=".45"/><stop offset="1" stop-color="#ffd84d" stop-opacity="0"/></radialGradient></defs><ellipse cx="60" cy="60" rx="56" ry="28" fill="url(#glow)"/><g><path d="M15.0 76 v5 a15.0 8.4 0 0 0 30 0 v-5z" fill="url(#side)"/><ellipse cx="30" cy="76" rx="15.0" ry="8.4" fill="url(#top)" stroke="#b86e00" stroke-width="1"/></g><g><path d="M15.0 70 v5 a15.0 8.4 0 0 0 30 0 v-5z" fill="url(#side)"/><ellipse cx="30" cy="70" rx="15.0" ry="8.4" fill="url(#top)" stroke="#b86e00" stroke-width="1"/></g><g><path d="M15.0 64 v5 a15.0 8.4 0 0 0 30 0 v-5z" fill="url(#side)"/><ellipse cx="30" cy="64" rx="15.0" ry="8.4" fill="url(#top)" stroke="#b86e00" stroke-width="1"/></g><g><path d="M15.0 58 v5 a15.0 8.4 0 0 0 30 0 v-5z" fill="url(#side)"/><ellipse cx="30" cy="58" rx="15.0" ry="8.4" fill="url(#top)" stroke="#b86e00" stroke-width="1"/></g><g><path d="M15.0 52 v5 a15.0 8.4 0 0 0 30 0 v-5z" fill="url(#side)"/><ellipse cx="30" cy="52" rx="15.0" ry="8.4" fill="url(#top)" stroke="#b86e00" stroke-width="1"/></g><g><path d="M15.0 46 v5 a15.0 8.4 0 0 0 30 0 v-5z" fill="url(#side)"/><ellipse cx="30" cy="46" rx="15.0" ry="8.4" fill="url(#top)" stroke="#b86e00" stroke-width="1"/></g><ellipse cx="30" cy="46" rx="10.0" ry="5.4" fill="none" stroke="#fff3a8" stroke-width="1.4" opacity=".8"/><text x="30" y="49.5" font-family="Arial Black,Arial" font-weight="900" font-size="10" fill="#c27a00" text-anchor="middle">$</text><g><path d="M37.0 70 v5 a17.0 9.520000000000001 0 0 0 34 0 v-5z" fill="url(#side)"/><ellipse cx="54" cy="70" rx="17.0" ry="9.520000000000001" fill="url(#top)" stroke="#b86e00" stroke-width="1"/></g><g><path d="M37.0 64 v5 a17.0 9.520000000000001 0 0 0 34 0 v-5z" fill="url(#side)"/><ellipse cx="54" cy="64" rx="17.0" ry="9.520000000000001" fill="url(#top)" stroke="#b86e00" stroke-width="1"/></g><g><path d="M37.0 58 v5 a17.0 9.520000000000001 0 0 0 34 0 v-5z" fill="url(#side)"/><ellipse cx="54" cy="58" rx="17.0" ry="9.520000000000001" fill="url(#top)" stroke="#b86e00" stroke-width="1"/></g><g><path d="M37.0 52 v5 a17.0 9.520000000000001 0 0 0 34 0 v-5z" fill="url(#side)"/><ellipse cx="54" cy="52" rx="17.0" ry="9.520000000000001" fill="url(#top)" stroke="#b86e00" stroke-width="1"/></g><g><path d="M37.0 46 v5 a17.0 9.520000000000001 0 0 0 34 0 v-5z" fill="url(#side)"/><ellipse cx="54" cy="46" rx="17.0" ry="9.520000000000001" fill="url(#top)" stroke="#b86e00" stroke-width="1"/></g><g><path d="M37.0 40 v5 a17.0 9.520000000000001 0 0 0 34 0 v-5z" fill="url(#side)"/><ellipse cx="54" cy="40" rx="17.0" ry="9.520000000000001" fill="url(#top)" stroke="#b86e00" stroke-width="1"/></g><g><path d="M37.0 34 v5 a17.0 9.520000000000001 0 0 0 34 0 v-5z" fill="url(#side)"/><ellipse cx="54" cy="34" rx="17.0" ry="9.520000000000001" fill="url(#top)" stroke="#b86e00" stroke-width="1"/></g><g><path d="M37.0 28 v5 a17.0 9.520000000000001 0 0 0 34 0 v-5z" fill="url(#side)"/><ellipse cx="54" cy="28" rx="17.0" ry="9.520000000000001" fill="url(#top)" stroke="#b86e00" stroke-width="1"/></g><g><path d="M37.0 22 v5 a17.0 9.520000000000001 0 0 0 34 0 v-5z" fill="url(#side)"/><ellipse cx="54" cy="22" rx="17.0" ry="9.520000000000001" fill="url(#top)" stroke="#b86e00" stroke-width="1"/></g><ellipse cx="54" cy="22" rx="12.0" ry="6.520000000000001" fill="none" stroke="#fff3a8" stroke-width="1.4" opacity=".8"/><text x="54" y="25.5" font-family="Arial Black,Arial" font-weight="900" font-size="10" fill="#c27a00" text-anchor="middle">$</text><g><path d="M63.0 72 v5 a17.0 9.520000000000001 0 0 0 34 0 v-5z" fill="url(#side)"/><ellipse cx="80" cy="72" rx="17.0" ry="9.520000000000001" fill="url(#top)" stroke="#b86e00" stroke-width="1"/></g><g><path d="M63.0 66 v5 a17.0 9.520000000000001 0 0 0 34 0 v-5z" fill="url(#side)"/><ellipse cx="80" cy="66" rx="17.0" ry="9.520000000000001" fill="url(#top)" stroke="#b86e00" stroke-width="1"/></g><g><path d="M63.0 60 v5 a17.0 9.520000000000001 0 0 0 34 0 v-5z" fill="url(#side)"/><ellipse cx="80" cy="60" rx="17.0" ry="9.520000000000001" fill="url(#top)" stroke="#b86e00" stroke-width="1"/></g><g><path d="M63.0 54 v5 a17.0 9.520000000000001 0 0 0 34 0 v-5z" fill="url(#side)"/><ellipse cx="80" cy="54" rx="17.0" ry="9.520000000000001" fill="url(#top)" stroke="#b86e00" stroke-width="1"/></g><g><path d="M63.0 48 v5 a17.0 9.520000000000001 0 0 0 34 0 v-5z" fill="url(#side)"/><ellipse cx="80" cy="48" rx="17.0" ry="9.520000000000001" fill="url(#top)" stroke="#b86e00" stroke-width="1"/></g><g><path d="M63.0 42 v5 a17.0 9.520000000000001 0 0 0 34 0 v-5z" fill="url(#side)"/><ellipse cx="80" cy="42" rx="17.0" ry="9.520000000000001" fill="url(#top)" stroke="#b86e00" stroke-width="1"/></g><g><path d="M63.0 36 v5 a17.0 9.520000000000001 0 0 0 34 0 v-5z" fill="url(#side)"/><ellipse cx="80" cy="36" rx="17.0" ry="9.520000000000001" fill="url(#top)" stroke="#b86e00" stroke-width="1"/></g><ellipse cx="80" cy="36" rx="12.0" ry="6.520000000000001" fill="none" stroke="#fff3a8" stroke-width="1.4" opacity=".8"/><text x="80" y="39.5" font-family="Arial Black,Arial" font-weight="900" font-size="10" fill="#c27a00" text-anchor="middle">$</text><g><path d="M86.0 80 v5 a14.0 7.840000000000001 0 0 0 28 0 v-5z" fill="url(#side)"/><ellipse cx="100" cy="80" rx="14.0" ry="7.840000000000001" fill="url(#top)" stroke="#b86e00" stroke-width="1"/></g><g><path d="M86.0 74 v5 a14.0 7.840000000000001 0 0 0 28 0 v-5z" fill="url(#side)"/><ellipse cx="100" cy="74" rx="14.0" ry="7.840000000000001" fill="url(#top)" stroke="#b86e00" stroke-width="1"/></g><g><path d="M86.0 68 v5 a14.0 7.840000000000001 0 0 0 28 0 v-5z" fill="url(#side)"/><ellipse cx="100" cy="68" rx="14.0" ry="7.840000000000001" fill="url(#top)" stroke="#b86e00" stroke-width="1"/></g><g><path d="M86.0 62 v5 a14.0 7.840000000000001 0 0 0 28 0 v-5z" fill="url(#side)"/><ellipse cx="100" cy="62" rx="14.0" ry="7.840000000000001" fill="url(#top)" stroke="#b86e00" stroke-width="1"/></g><ellipse cx="100" cy="62" rx="9.0" ry="4.840000000000001" fill="none" stroke="#fff3a8" stroke-width="1.4" opacity=".8"/><text x="100" y="65.5" font-family="Arial Black,Arial" font-weight="900" font-size="10" fill="#c27a00" text-anchor="middle">$</text><g transform="rotate(-18 16 84)"><ellipse cx="16" cy="87" rx="13.0" ry="7.8" fill="#c98200"/><ellipse cx="16" cy="84" rx="13.0" ry="7.8" fill="url(#top)" stroke="#b86e00"/><text x="16" y="87.5" font-family="Arial Black,Arial" font-weight="900" font-size="10" fill="#c27a00" text-anchor="middle">$</text></g><g transform="rotate(10 66 84)"><ellipse cx="66" cy="87" rx="14.0" ry="8.4" fill="#c98200"/><ellipse cx="66" cy="84" rx="14.0" ry="8.4" fill="url(#top)" stroke="#b86e00"/><text x="66" y="87.5" font-family="Arial Black,Arial" font-weight="900" font-size="10" fill="#c27a00" text-anchor="middle">$</text></g><path d="M104 19 L105.5 22.5 L109 24 L105.5 25.5 L104 29 L102.5 25.5 L99 24 L102.5 22.5Z" fill="#fff6c2"/><path d="M14 26 L15.2 28.8 L18 30 L15.2 31.2 L14 34 L12.8 31.2 L10 30 L12.8 28.8Z" fill="#fff6c2"/><path d="M70 6 L71.2 8.8 L74 10 L71.2 11.2 L70 14 L68.8 11.2 L66 10 L68.8 8.8Z" fill="#fff6c2"/></svg>
